<mxfile host="Electron" modified="2023-12-15T00:13:16.280Z" agent="Mozilla/5.0 (Windows NT 10.0; Win64; x64) AppleWebKit/537.36 (KHTML, like Gecko) draw.io/22.1.2 Chrome/114.0.5735.289 Electron/25.9.4 Safari/537.36" etag="a7RAx7LI0HMJKXpmomIx" version="22.1.2" type="device">
  <diagram id="C5RBs43oDa-KdzZeNtuy" name="Page-1">
    <mxGraphModel dx="1683" dy="1513" grid="1" gridSize="10" guides="1" tooltips="1" connect="1" arrows="1" fold="1" page="1" pageScale="1" pageWidth="827" pageHeight="1169" math="0" shadow="0">
      <root>
        <mxCell id="WIyWlLk6GJQsqaUBKTNV-0" />
        <mxCell id="WIyWlLk6GJQsqaUBKTNV-1" parent="WIyWlLk6GJQsqaUBKTNV-0" />
        <mxCell id="zkfFHV4jXpPFQw0GAbJ--0" value="Session" style="swimlane;fontStyle=2;align=center;verticalAlign=top;childLayout=stackLayout;horizontal=1;startSize=26;horizontalStack=0;resizeParent=1;resizeLast=0;collapsible=1;marginBottom=0;rounded=0;shadow=0;strokeWidth=1;" parent="WIyWlLk6GJQsqaUBKTNV-1" vertex="1">
          <mxGeometry x="-300" y="400" width="370" height="478" as="geometry">
            <mxRectangle x="230" y="140" width="160" height="26" as="alternateBounds" />
          </mxGeometry>
        </mxCell>
        <mxCell id="zkfFHV4jXpPFQw0GAbJ--3" value="+ Session(LocalDateTime, String) &lt;&lt;constructor&gt;&gt;" style="text;align=left;verticalAlign=top;spacingLeft=4;spacingRight=4;overflow=hidden;rotatable=0;points=[[0,0.5],[1,0.5]];portConstraint=eastwest;rounded=0;shadow=0;html=0;" parent="zkfFHV4jXpPFQw0GAbJ--0" vertex="1">
          <mxGeometry y="26" width="370" height="26" as="geometry" />
        </mxCell>
        <mxCell id="o-ATmbHxrp7PloGEN_Ee-30" value="+ setSessionName(String) : void" style="text;align=left;verticalAlign=top;spacingLeft=4;spacingRight=4;overflow=hidden;rotatable=0;points=[[0,0.5],[1,0.5]];portConstraint=eastwest;rounded=0;shadow=0;html=0;" parent="zkfFHV4jXpPFQw0GAbJ--0" vertex="1">
          <mxGeometry y="52" width="370" height="26" as="geometry" />
        </mxCell>
        <mxCell id="o-ATmbHxrp7PloGEN_Ee-37" value="+ getCreationDate() : LocalDateTime" style="text;align=left;verticalAlign=top;spacingLeft=4;spacingRight=4;overflow=hidden;rotatable=0;points=[[0,0.5],[1,0.5]];portConstraint=eastwest;rounded=0;shadow=0;html=0;" parent="zkfFHV4jXpPFQw0GAbJ--0" vertex="1">
          <mxGeometry y="78" width="370" height="26" as="geometry" />
        </mxCell>
        <mxCell id="o-ATmbHxrp7PloGEN_Ee-36" value="+ getFormattedCreationDate() : String" style="text;align=left;verticalAlign=top;spacingLeft=4;spacingRight=4;overflow=hidden;rotatable=0;points=[[0,0.5],[1,0.5]];portConstraint=eastwest;rounded=0;shadow=0;html=0;" parent="zkfFHV4jXpPFQw0GAbJ--0" vertex="1">
          <mxGeometry y="104" width="370" height="28" as="geometry" />
        </mxCell>
        <mxCell id="o-ATmbHxrp7PloGEN_Ee-38" value="+ setSessionName() : String" style="text;align=left;verticalAlign=top;spacingLeft=4;spacingRight=4;overflow=hidden;rotatable=0;points=[[0,0.5],[1,0.5]];portConstraint=eastwest;rounded=0;shadow=0;html=0;" parent="zkfFHV4jXpPFQw0GAbJ--0" vertex="1">
          <mxGeometry y="132" width="370" height="26" as="geometry" />
        </mxCell>
        <mxCell id="o-ATmbHxrp7PloGEN_Ee-41" value="+ getStrengthExercises() : ObservableList&lt;StrengthExercise&gt;" style="text;align=left;verticalAlign=top;spacingLeft=4;spacingRight=4;overflow=hidden;rotatable=0;points=[[0,0.5],[1,0.5]];portConstraint=eastwest;rounded=0;shadow=0;html=0;" parent="zkfFHV4jXpPFQw0GAbJ--0" vertex="1">
          <mxGeometry y="158" width="370" height="26" as="geometry" />
        </mxCell>
        <mxCell id="o-ATmbHxrp7PloGEN_Ee-40" value="+ getCardioExercises() : ObservableList&lt;CardioExercise&gt;" style="text;align=left;verticalAlign=top;spacingLeft=4;spacingRight=4;overflow=hidden;rotatable=0;points=[[0,0.5],[1,0.5]];portConstraint=eastwest;rounded=0;shadow=0;html=0;" parent="zkfFHV4jXpPFQw0GAbJ--0" vertex="1">
          <mxGeometry y="184" width="370" height="26" as="geometry" />
        </mxCell>
        <mxCell id="zkfFHV4jXpPFQw0GAbJ--4" value="" style="line;html=1;strokeWidth=1;align=left;verticalAlign=middle;spacingTop=-1;spacingLeft=3;spacingRight=3;rotatable=0;labelPosition=right;points=[];portConstraint=eastwest;" parent="zkfFHV4jXpPFQw0GAbJ--0" vertex="1">
          <mxGeometry y="210" width="370" height="8" as="geometry" />
        </mxCell>
        <mxCell id="zkfFHV4jXpPFQw0GAbJ--5" value="- creationDate : LocalDateTime" style="text;align=left;verticalAlign=top;spacingLeft=4;spacingRight=4;overflow=hidden;rotatable=0;points=[[0,0.5],[1,0.5]];portConstraint=eastwest;" parent="zkfFHV4jXpPFQw0GAbJ--0" vertex="1">
          <mxGeometry y="218" width="370" height="26" as="geometry" />
        </mxCell>
        <mxCell id="zkfFHV4jXpPFQw0GAbJ--1" value="- sessionName : String" style="text;align=left;verticalAlign=top;spacingLeft=4;spacingRight=4;overflow=hidden;rotatable=0;points=[[0,0.5],[1,0.5]];portConstraint=eastwest;" parent="zkfFHV4jXpPFQw0GAbJ--0" vertex="1">
          <mxGeometry y="244" width="370" height="26" as="geometry" />
        </mxCell>
        <mxCell id="o-ATmbHxrp7PloGEN_Ee-20" value="- strengthExercises : ObservableList&lt;StrengthExercise&gt;" style="text;align=left;verticalAlign=top;spacingLeft=4;spacingRight=4;overflow=hidden;rotatable=0;points=[[0,0.5],[1,0.5]];portConstraint=eastwest;" parent="zkfFHV4jXpPFQw0GAbJ--0" vertex="1">
          <mxGeometry y="270" width="370" height="26" as="geometry" />
        </mxCell>
        <mxCell id="o-ATmbHxrp7PloGEN_Ee-98" value="- cardioExercises : ObservableList&lt;CardioExercise&gt;" style="text;align=left;verticalAlign=top;spacingLeft=4;spacingRight=4;overflow=hidden;rotatable=0;points=[[0,0.5],[1,0.5]];portConstraint=eastwest;" parent="zkfFHV4jXpPFQw0GAbJ--0" vertex="1">
          <mxGeometry y="296" width="370" height="26" as="geometry" />
        </mxCell>
        <mxCell id="o-ATmbHxrp7PloGEN_Ee-1" value="Exercise" style="swimlane;fontStyle=2;align=center;verticalAlign=top;childLayout=stackLayout;horizontal=1;startSize=26;horizontalStack=0;resizeParent=1;resizeLast=0;collapsible=1;marginBottom=0;rounded=0;shadow=0;strokeWidth=1;" parent="WIyWlLk6GJQsqaUBKTNV-1" vertex="1">
          <mxGeometry x="100" y="160" width="430" height="710" as="geometry">
            <mxRectangle x="230" y="140" width="160" height="26" as="alternateBounds" />
          </mxGeometry>
        </mxCell>
        <mxCell id="o-ATmbHxrp7PloGEN_Ee-4" value="+ Exercise(String, double, int, int, String) &lt;&lt;constructor&gt;&gt;" style="text;align=left;verticalAlign=top;spacingLeft=4;spacingRight=4;overflow=hidden;rotatable=0;points=[[0,0.5],[1,0.5]];portConstraint=eastwest;rounded=0;shadow=0;html=0;" parent="o-ATmbHxrp7PloGEN_Ee-1" vertex="1">
          <mxGeometry y="26" width="430" height="26" as="geometry" />
        </mxCell>
        <mxCell id="p4FMX1ETDdVCr6IzBXcA-8" value="+ calculateFifthColumn(): abstract double" style="text;align=left;verticalAlign=top;spacingLeft=4;spacingRight=4;overflow=hidden;rotatable=0;points=[[0,0.5],[1,0.5]];portConstraint=eastwest;rounded=0;shadow=0;html=0;" vertex="1" parent="o-ATmbHxrp7PloGEN_Ee-1">
          <mxGeometry y="52" width="430" height="26" as="geometry" />
        </mxCell>
        <mxCell id="p4FMX1ETDdVCr6IzBXcA-9" value="+ calculateSixthColumn(): abstract double" style="text;align=left;verticalAlign=top;spacingLeft=4;spacingRight=4;overflow=hidden;rotatable=0;points=[[0,0.5],[1,0.5]];portConstraint=eastwest;rounded=0;shadow=0;html=0;" vertex="1" parent="o-ATmbHxrp7PloGEN_Ee-1">
          <mxGeometry y="78" width="430" height="26" as="geometry" />
        </mxCell>
        <mxCell id="o-ATmbHxrp7PloGEN_Ee-44" value="+ setExerciseName (String) : void" style="text;align=left;verticalAlign=top;spacingLeft=4;spacingRight=4;overflow=hidden;rotatable=0;points=[[0,0.5],[1,0.5]];portConstraint=eastwest;rounded=0;shadow=0;html=0;" parent="o-ATmbHxrp7PloGEN_Ee-1" vertex="1">
          <mxGeometry y="104" width="430" height="26" as="geometry" />
        </mxCell>
        <mxCell id="o-ATmbHxrp7PloGEN_Ee-43" value="+ setSecondColumn (Double) : void" style="text;align=left;verticalAlign=top;spacingLeft=4;spacingRight=4;overflow=hidden;rotatable=0;points=[[0,0.5],[1,0.5]];portConstraint=eastwest;rounded=0;shadow=0;html=0;" parent="o-ATmbHxrp7PloGEN_Ee-1" vertex="1">
          <mxGeometry y="130" width="430" height="26" as="geometry" />
        </mxCell>
        <mxCell id="o-ATmbHxrp7PloGEN_Ee-42" value="+ setThirdColumn (Integer) : void" style="text;align=left;verticalAlign=top;spacingLeft=4;spacingRight=4;overflow=hidden;rotatable=0;points=[[0,0.5],[1,0.5]];portConstraint=eastwest;rounded=0;shadow=0;html=0;" parent="o-ATmbHxrp7PloGEN_Ee-1" vertex="1">
          <mxGeometry y="156" width="430" height="26" as="geometry" />
        </mxCell>
        <mxCell id="o-ATmbHxrp7PloGEN_Ee-50" value="+ setFourthColumn (Integer) : void" style="text;align=left;verticalAlign=top;spacingLeft=4;spacingRight=4;overflow=hidden;rotatable=0;points=[[0,0.5],[1,0.5]];portConstraint=eastwest;rounded=0;shadow=0;html=0;" parent="o-ATmbHxrp7PloGEN_Ee-1" vertex="1">
          <mxGeometry y="182" width="430" height="26" as="geometry" />
        </mxCell>
        <mxCell id="o-ATmbHxrp7PloGEN_Ee-49" value="+ setSeventhColumn (String) : void" style="text;align=left;verticalAlign=top;spacingLeft=4;spacingRight=4;overflow=hidden;rotatable=0;points=[[0,0.5],[1,0.5]];portConstraint=eastwest;rounded=0;shadow=0;html=0;" parent="o-ATmbHxrp7PloGEN_Ee-1" vertex="1">
          <mxGeometry y="208" width="430" height="26" as="geometry" />
        </mxCell>
        <mxCell id="o-ATmbHxrp7PloGEN_Ee-48" value="+ getSecondColumn () : Double" style="text;align=left;verticalAlign=top;spacingLeft=4;spacingRight=4;overflow=hidden;rotatable=0;points=[[0,0.5],[1,0.5]];portConstraint=eastwest;rounded=0;shadow=0;html=0;" parent="o-ATmbHxrp7PloGEN_Ee-1" vertex="1">
          <mxGeometry y="234" width="430" height="26" as="geometry" />
        </mxCell>
        <mxCell id="o-ATmbHxrp7PloGEN_Ee-47" value="+ getThirdColumn () : Integer" style="text;align=left;verticalAlign=top;spacingLeft=4;spacingRight=4;overflow=hidden;rotatable=0;points=[[0,0.5],[1,0.5]];portConstraint=eastwest;rounded=0;shadow=0;html=0;" parent="o-ATmbHxrp7PloGEN_Ee-1" vertex="1">
          <mxGeometry y="260" width="430" height="26" as="geometry" />
        </mxCell>
        <mxCell id="p4FMX1ETDdVCr6IzBXcA-14" value="+ getFourthColumn () : Integer" style="text;align=left;verticalAlign=top;spacingLeft=4;spacingRight=4;overflow=hidden;rotatable=0;points=[[0,0.5],[1,0.5]];portConstraint=eastwest;rounded=0;shadow=0;html=0;" vertex="1" parent="o-ATmbHxrp7PloGEN_Ee-1">
          <mxGeometry y="286" width="430" height="26" as="geometry" />
        </mxCell>
        <mxCell id="p4FMX1ETDdVCr6IzBXcA-13" value="+ getFifthColumn () : Double" style="text;align=left;verticalAlign=top;spacingLeft=4;spacingRight=4;overflow=hidden;rotatable=0;points=[[0,0.5],[1,0.5]];portConstraint=eastwest;rounded=0;shadow=0;html=0;" vertex="1" parent="o-ATmbHxrp7PloGEN_Ee-1">
          <mxGeometry y="312" width="430" height="26" as="geometry" />
        </mxCell>
        <mxCell id="p4FMX1ETDdVCr6IzBXcA-12" value="+ exerciseNameProperty() : StringProperty" style="text;align=left;verticalAlign=top;spacingLeft=4;spacingRight=4;overflow=hidden;rotatable=0;points=[[0,0.5],[1,0.5]];portConstraint=eastwest;rounded=0;shadow=0;html=0;" vertex="1" parent="o-ATmbHxrp7PloGEN_Ee-1">
          <mxGeometry y="338" width="430" height="26" as="geometry" />
        </mxCell>
        <mxCell id="p4FMX1ETDdVCr6IzBXcA-11" value="+ secondColumn Property() : DoubleProperty" style="text;align=left;verticalAlign=top;spacingLeft=4;spacingRight=4;overflow=hidden;rotatable=0;points=[[0,0.5],[1,0.5]];portConstraint=eastwest;rounded=0;shadow=0;html=0;" vertex="1" parent="o-ATmbHxrp7PloGEN_Ee-1">
          <mxGeometry y="364" width="430" height="26" as="geometry" />
        </mxCell>
        <mxCell id="p4FMX1ETDdVCr6IzBXcA-10" value="+ thirdColumnProperty() : IntegerProperty" style="text;align=left;verticalAlign=top;spacingLeft=4;spacingRight=4;overflow=hidden;rotatable=0;points=[[0,0.5],[1,0.5]];portConstraint=eastwest;rounded=0;shadow=0;html=0;" vertex="1" parent="o-ATmbHxrp7PloGEN_Ee-1">
          <mxGeometry y="390" width="430" height="26" as="geometry" />
        </mxCell>
        <mxCell id="p4FMX1ETDdVCr6IzBXcA-17" value="+ fourthColumnProperty() : IntegerProperty" style="text;align=left;verticalAlign=top;spacingLeft=4;spacingRight=4;overflow=hidden;rotatable=0;points=[[0,0.5],[1,0.5]];portConstraint=eastwest;rounded=0;shadow=0;html=0;" vertex="1" parent="o-ATmbHxrp7PloGEN_Ee-1">
          <mxGeometry y="416" width="430" height="26" as="geometry" />
        </mxCell>
        <mxCell id="p4FMX1ETDdVCr6IzBXcA-16" value="+ seventhColumnProperty() : StringProperty" style="text;align=left;verticalAlign=top;spacingLeft=4;spacingRight=4;overflow=hidden;rotatable=0;points=[[0,0.5],[1,0.5]];portConstraint=eastwest;rounded=0;shadow=0;html=0;" vertex="1" parent="o-ATmbHxrp7PloGEN_Ee-1">
          <mxGeometry y="442" width="430" height="26" as="geometry" />
        </mxCell>
        <mxCell id="o-ATmbHxrp7PloGEN_Ee-5" value="" style="line;html=1;strokeWidth=1;align=left;verticalAlign=middle;spacingTop=-1;spacingLeft=3;spacingRight=3;rotatable=0;labelPosition=right;points=[];portConstraint=eastwest;" parent="o-ATmbHxrp7PloGEN_Ee-1" vertex="1">
          <mxGeometry y="468" width="430" height="8" as="geometry" />
        </mxCell>
        <mxCell id="o-ATmbHxrp7PloGEN_Ee-6" value="- nameColumn = new SimpleStringProperty() : StringProperty" style="text;align=left;verticalAlign=top;spacingLeft=4;spacingRight=4;overflow=hidden;rotatable=0;points=[[0,0.5],[1,0.5]];portConstraint=eastwest;" parent="o-ATmbHxrp7PloGEN_Ee-1" vertex="1">
          <mxGeometry y="476" width="430" height="26" as="geometry" />
        </mxCell>
        <mxCell id="o-ATmbHxrp7PloGEN_Ee-21" value="- secondColumn = new SimpleDoubleProperty() : DoubleProperty" style="text;align=left;verticalAlign=top;spacingLeft=4;spacingRight=4;overflow=hidden;rotatable=0;points=[[0,0.5],[1,0.5]];portConstraint=eastwest;" parent="o-ATmbHxrp7PloGEN_Ee-1" vertex="1">
          <mxGeometry y="502" width="430" height="26" as="geometry" />
        </mxCell>
        <mxCell id="p4FMX1ETDdVCr6IzBXcA-5" value="- thirdColumn = new SimpleIntegerProperty() : IntegerProperty" style="text;align=left;verticalAlign=top;spacingLeft=4;spacingRight=4;overflow=hidden;rotatable=0;points=[[0,0.5],[1,0.5]];portConstraint=eastwest;" vertex="1" parent="o-ATmbHxrp7PloGEN_Ee-1">
          <mxGeometry y="528" width="430" height="26" as="geometry" />
        </mxCell>
        <mxCell id="p4FMX1ETDdVCr6IzBXcA-4" value="- fourthColumn = new SimpleIntegerProperty() : IntegerProperty" style="text;align=left;verticalAlign=top;spacingLeft=4;spacingRight=4;overflow=hidden;rotatable=0;points=[[0,0.5],[1,0.5]];portConstraint=eastwest;" vertex="1" parent="o-ATmbHxrp7PloGEN_Ee-1">
          <mxGeometry y="554" width="430" height="26" as="geometry" />
        </mxCell>
        <mxCell id="p4FMX1ETDdVCr6IzBXcA-3" value="- fifthColumn = new SimpleDoubleProperty() : DoubleProperty" style="text;align=left;verticalAlign=top;spacingLeft=4;spacingRight=4;overflow=hidden;rotatable=0;points=[[0,0.5],[1,0.5]];portConstraint=eastwest;" vertex="1" parent="o-ATmbHxrp7PloGEN_Ee-1">
          <mxGeometry y="580" width="430" height="26" as="geometry" />
        </mxCell>
        <mxCell id="p4FMX1ETDdVCr6IzBXcA-2" value="- sixthColumn = new SimpleDoubleProperty() : DoubleProperty" style="text;align=left;verticalAlign=top;spacingLeft=4;spacingRight=4;overflow=hidden;rotatable=0;points=[[0,0.5],[1,0.5]];portConstraint=eastwest;" vertex="1" parent="o-ATmbHxrp7PloGEN_Ee-1">
          <mxGeometry y="606" width="430" height="26" as="geometry" />
        </mxCell>
        <mxCell id="p4FMX1ETDdVCr6IzBXcA-1" value="- seventhColumn = new SimpleStringProperty() : StringProperty" style="text;align=left;verticalAlign=top;spacingLeft=4;spacingRight=4;overflow=hidden;rotatable=0;points=[[0,0.5],[1,0.5]];portConstraint=eastwest;" vertex="1" parent="o-ATmbHxrp7PloGEN_Ee-1">
          <mxGeometry y="632" width="430" height="26" as="geometry" />
        </mxCell>
        <mxCell id="p4FMX1ETDdVCr6IzBXcA-0" style="text;align=left;verticalAlign=top;spacingLeft=4;spacingRight=4;overflow=hidden;rotatable=0;points=[[0,0.5],[1,0.5]];portConstraint=eastwest;" vertex="1" parent="o-ATmbHxrp7PloGEN_Ee-1">
          <mxGeometry y="658" width="430" height="26" as="geometry" />
        </mxCell>
        <mxCell id="o-ATmbHxrp7PloGEN_Ee-95" style="edgeStyle=orthogonalEdgeStyle;rounded=0;orthogonalLoop=1;jettySize=auto;html=1;exitX=0.5;exitY=0;exitDx=0;exitDy=0;entryX=0.25;entryY=1;entryDx=0;entryDy=0;" parent="WIyWlLk6GJQsqaUBKTNV-1" source="o-ATmbHxrp7PloGEN_Ee-7" target="o-ATmbHxrp7PloGEN_Ee-1" edge="1">
          <mxGeometry relative="1" as="geometry">
            <mxPoint x="160" y="579.9999999999998" as="targetPoint" />
          </mxGeometry>
        </mxCell>
        <mxCell id="o-ATmbHxrp7PloGEN_Ee-7" value="StrengthExercise" style="swimlane;fontStyle=2;align=center;verticalAlign=top;childLayout=stackLayout;horizontal=1;startSize=26;horizontalStack=0;resizeParent=1;resizeLast=0;collapsible=1;marginBottom=0;rounded=0;shadow=0;strokeWidth=1;" parent="WIyWlLk6GJQsqaUBKTNV-1" vertex="1">
          <mxGeometry x="-50" y="950" width="360" height="140" as="geometry">
            <mxRectangle x="230" y="140" width="160" height="26" as="alternateBounds" />
          </mxGeometry>
        </mxCell>
        <mxCell id="o-ATmbHxrp7PloGEN_Ee-9" value="+ StrengthExercise(String, double, int, int, String) &lt;&lt;constructor&gt;&gt;" style="text;align=left;verticalAlign=top;spacingLeft=4;spacingRight=4;overflow=hidden;rotatable=0;points=[[0,0.5],[1,0.5]];portConstraint=eastwest;rounded=0;shadow=0;html=0;" parent="o-ATmbHxrp7PloGEN_Ee-7" vertex="1">
          <mxGeometry y="26" width="360" height="26" as="geometry" />
        </mxCell>
        <mxCell id="o-ATmbHxrp7PloGEN_Ee-10" value="@override calculateFifthColumn : double" style="text;align=left;verticalAlign=top;spacingLeft=4;spacingRight=4;overflow=hidden;rotatable=0;points=[[0,0.5],[1,0.5]];portConstraint=eastwest;rounded=0;shadow=0;html=0;" parent="o-ATmbHxrp7PloGEN_Ee-7" vertex="1">
          <mxGeometry y="52" width="360" height="26" as="geometry" />
        </mxCell>
        <mxCell id="o-ATmbHxrp7PloGEN_Ee-54" value="@override calculateSixthColumn : double" style="text;align=left;verticalAlign=top;spacingLeft=4;spacingRight=4;overflow=hidden;rotatable=0;points=[[0,0.5],[1,0.5]];portConstraint=eastwest;rounded=0;shadow=0;html=0;" parent="o-ATmbHxrp7PloGEN_Ee-7" vertex="1">
          <mxGeometry y="78" width="360" height="26" as="geometry" />
        </mxCell>
        <mxCell id="o-ATmbHxrp7PloGEN_Ee-11" value="" style="line;html=1;strokeWidth=1;align=left;verticalAlign=middle;spacingTop=-1;spacingLeft=3;spacingRight=3;rotatable=0;labelPosition=right;points=[];portConstraint=eastwest;" parent="o-ATmbHxrp7PloGEN_Ee-7" vertex="1">
          <mxGeometry y="104" width="360" height="8" as="geometry" />
        </mxCell>
        <mxCell id="o-ATmbHxrp7PloGEN_Ee-96" style="edgeStyle=orthogonalEdgeStyle;rounded=0;orthogonalLoop=1;jettySize=auto;html=1;exitX=0.5;exitY=0;exitDx=0;exitDy=0;entryX=0.75;entryY=1;entryDx=0;entryDy=0;" parent="WIyWlLk6GJQsqaUBKTNV-1" source="p4FMX1ETDdVCr6IzBXcA-18" target="o-ATmbHxrp7PloGEN_Ee-1" edge="1">
          <mxGeometry relative="1" as="geometry">
            <mxPoint x="367.5" y="949.9999999999995" as="sourcePoint" />
          </mxGeometry>
        </mxCell>
        <mxCell id="o-ATmbHxrp7PloGEN_Ee-74" value="Program" style="swimlane;fontStyle=2;align=center;verticalAlign=top;childLayout=stackLayout;horizontal=1;startSize=26;horizontalStack=0;resizeParent=1;resizeLast=0;collapsible=1;marginBottom=0;rounded=0;shadow=0;strokeWidth=1;" parent="WIyWlLk6GJQsqaUBKTNV-1" vertex="1">
          <mxGeometry x="-230" y="160" width="220" height="220" as="geometry">
            <mxRectangle x="230" y="140" width="160" height="26" as="alternateBounds" />
          </mxGeometry>
        </mxCell>
        <mxCell id="o-ATmbHxrp7PloGEN_Ee-75" value="+ Program() : &lt;&lt;constructor&gt;&gt;" style="text;align=left;verticalAlign=top;spacingLeft=4;spacingRight=4;overflow=hidden;rotatable=0;points=[[0,0.5],[1,0.5]];portConstraint=eastwest;rounded=0;shadow=0;html=0;" parent="o-ATmbHxrp7PloGEN_Ee-74" vertex="1">
          <mxGeometry y="26" width="220" height="26" as="geometry" />
        </mxCell>
        <mxCell id="o-ATmbHxrp7PloGEN_Ee-80" value="+ getSessions() : List&lt;Session&gt;" style="text;align=left;verticalAlign=top;spacingLeft=4;spacingRight=4;overflow=hidden;rotatable=0;points=[[0,0.5],[1,0.5]];portConstraint=eastwest;rounded=0;shadow=0;html=0;" parent="o-ATmbHxrp7PloGEN_Ee-74" vertex="1">
          <mxGeometry y="52" width="220" height="26" as="geometry" />
        </mxCell>
        <mxCell id="o-ATmbHxrp7PloGEN_Ee-83" style="text;align=left;verticalAlign=top;spacingLeft=4;spacingRight=4;overflow=hidden;rotatable=0;points=[[0,0.5],[1,0.5]];portConstraint=eastwest;rounded=0;shadow=0;html=0;" parent="o-ATmbHxrp7PloGEN_Ee-74" vertex="1">
          <mxGeometry y="78" width="220" height="26" as="geometry" />
        </mxCell>
        <mxCell id="o-ATmbHxrp7PloGEN_Ee-84" value="" style="line;html=1;strokeWidth=1;align=left;verticalAlign=middle;spacingTop=-1;spacingLeft=3;spacingRight=3;rotatable=0;labelPosition=right;points=[];portConstraint=eastwest;" parent="o-ATmbHxrp7PloGEN_Ee-74" vertex="1">
          <mxGeometry y="104" width="220" height="8" as="geometry" />
        </mxCell>
        <mxCell id="o-ATmbHxrp7PloGEN_Ee-86" value="- sessions : List&lt;Session&gt;" style="text;align=left;verticalAlign=top;spacingLeft=4;spacingRight=4;overflow=hidden;rotatable=0;points=[[0,0.5],[1,0.5]];portConstraint=eastwest;" parent="o-ATmbHxrp7PloGEN_Ee-74" vertex="1">
          <mxGeometry y="112" width="220" height="26" as="geometry" />
        </mxCell>
        <mxCell id="o-ATmbHxrp7PloGEN_Ee-90" style="text;align=left;verticalAlign=top;spacingLeft=4;spacingRight=4;overflow=hidden;rotatable=0;points=[[0,0.5],[1,0.5]];portConstraint=eastwest;" parent="o-ATmbHxrp7PloGEN_Ee-74" vertex="1">
          <mxGeometry y="138" width="220" height="26" as="geometry" />
        </mxCell>
        <mxCell id="p4FMX1ETDdVCr6IzBXcA-18" value="CardioExercise" style="swimlane;fontStyle=2;align=center;verticalAlign=top;childLayout=stackLayout;horizontal=1;startSize=26;horizontalStack=0;resizeParent=1;resizeLast=0;collapsible=1;marginBottom=0;rounded=0;shadow=0;strokeWidth=1;" vertex="1" parent="WIyWlLk6GJQsqaUBKTNV-1">
          <mxGeometry x="330" y="950" width="360" height="140" as="geometry">
            <mxRectangle x="230" y="140" width="160" height="26" as="alternateBounds" />
          </mxGeometry>
        </mxCell>
        <mxCell id="p4FMX1ETDdVCr6IzBXcA-19" value="+ CardioExercise(String, double, int, int, String) &lt;&lt;constructor&gt;&gt;" style="text;align=left;verticalAlign=top;spacingLeft=4;spacingRight=4;overflow=hidden;rotatable=0;points=[[0,0.5],[1,0.5]];portConstraint=eastwest;rounded=0;shadow=0;html=0;" vertex="1" parent="p4FMX1ETDdVCr6IzBXcA-18">
          <mxGeometry y="26" width="360" height="26" as="geometry" />
        </mxCell>
        <mxCell id="p4FMX1ETDdVCr6IzBXcA-20" value="@override calculateFifthColumn : double" style="text;align=left;verticalAlign=top;spacingLeft=4;spacingRight=4;overflow=hidden;rotatable=0;points=[[0,0.5],[1,0.5]];portConstraint=eastwest;rounded=0;shadow=0;html=0;" vertex="1" parent="p4FMX1ETDdVCr6IzBXcA-18">
          <mxGeometry y="52" width="360" height="26" as="geometry" />
        </mxCell>
        <mxCell id="p4FMX1ETDdVCr6IzBXcA-21" value="@override calculateSixthColumn : double" style="text;align=left;verticalAlign=top;spacingLeft=4;spacingRight=4;overflow=hidden;rotatable=0;points=[[0,0.5],[1,0.5]];portConstraint=eastwest;rounded=0;shadow=0;html=0;" vertex="1" parent="p4FMX1ETDdVCr6IzBXcA-18">
          <mxGeometry y="78" width="360" height="26" as="geometry" />
        </mxCell>
        <mxCell id="p4FMX1ETDdVCr6IzBXcA-22" value="" style="line;html=1;strokeWidth=1;align=left;verticalAlign=middle;spacingTop=-1;spacingLeft=3;spacingRight=3;rotatable=0;labelPosition=right;points=[];portConstraint=eastwest;" vertex="1" parent="p4FMX1ETDdVCr6IzBXcA-18">
          <mxGeometry y="104" width="360" height="8" as="geometry" />
        </mxCell>
      </root>
    </mxGraphModel>
  </diagram>
</mxfile>
